<?xml version="1.0" encoding="UTF-8" standalone="no"?>
<!DOCTYPE svg PUBLIC "-//W3C//DTD SVG 1.1//EN"
 "http://www.w3.org/Graphics/SVG/1.1/DTD/svg11.dtd">
<!-- Generated by graphviz version 2.40.1 (20161225.0304)
 -->
<!-- Title: frame_b_left Pages: 1 -->
<svg width="290pt" height="415pt"
 viewBox="0.00 0.00 290.49 415.00" xmlns="http://www.w3.org/2000/svg" xmlns:xlink="http://www.w3.org/1999/xlink">
<g id="graph0" class="graph" transform="scale(1 1) rotate(0) translate(4 411)">
<title>frame_b_left</title>
<polygon fill="#ffffff" stroke="transparent" points="-4,4 -4,-411 286.4937,-411 286.4937,4 -4,4"/>
<text text-anchor="middle" x="141.2468" y="-7.8" font-family="Times,serif" font-size="14.00" fill="#000000">T=562us, a=0.2T, α=500us, β=20ms.</text>
<!-- 0 -->
<g id="node1" class="node">
<title>0</title>
<ellipse fill="none" stroke="#000000" cx="171.9464" cy="-389" rx="31.3957" ry="18"/>
<text text-anchor="middle" x="171.9464" y="-385.3" font-family="Times,serif" font-size="14.00" fill="#000000">initial</text>
</g>
<!-- 1 -->
<g id="node2" class="node">
<title>1</title>
<ellipse fill="none" stroke="#000000" cx="40.9464" cy="-302" rx="40.8928" ry="18"/>
<text text-anchor="middle" x="40.9464" y="-298.3" font-family="Times,serif" font-size="14.00" fill="#000000">leader_0</text>
</g>
<!-- 0&#45;&gt;1 -->
<g id="edge1" class="edge">
<title>0&#45;&gt;1</title>
<path fill="none" stroke="#000000" d="M146.8318,-378.0382C132.8724,-371.5147 115.4462,-362.6431 100.9464,-353 88.7,-344.8556 76.1507,-334.5501 65.7157,-325.338"/>
<polygon fill="#000000" stroke="#000000" points="67.9616,-322.6505 58.1881,-318.5605 63.2778,-327.8527 67.9616,-322.6505"/>
<text text-anchor="middle" x="116.4464" y="-341.8" font-family="Times,serif" font-size="14.00" fill="#000000">0 {c}</text>
</g>
<!-- 1&#45;&gt;0 -->
<g id="edge4" class="edge">
<title>1&#45;&gt;0</title>
<path fill="none" stroke="#000000" d="M76.4307,-311.2161C94.2411,-316.9881 115.4718,-325.7031 131.9464,-338 141.2401,-344.937 149.5339,-354.5544 156.1265,-363.5697"/>
<polygon fill="#000000" stroke="#000000" points="153.336,-365.6881 161.9031,-371.9216 159.0931,-361.7062 153.336,-365.6881"/>
<text text-anchor="middle" x="157.9464" y="-341.8" font-family="Times,serif" font-size="14.00" fill="#000000">else</text>
</g>
<!-- 1&#45;&gt;1 -->
<g id="edge2" class="edge">
<title>1&#45;&gt;1</title>
<path fill="none" stroke="#000000" d="M77.7878,-309.875C90.0683,-309.875 99.8927,-307.25 99.8927,-302 99.8927,-298.3086 95.0357,-295.9149 87.883,-294.8191"/>
<polygon fill="#000000" stroke="#000000" points="88.0044,-291.3192 77.7878,-294.125 87.5242,-298.3028 88.0044,-291.3192"/>
<text text-anchor="middle" x="136.8927" y="-298.3" font-family="Times,serif" font-size="14.00" fill="#000000">0 [c &lt; 16T&#45;a]</text>
</g>
<!-- 2 -->
<g id="node3" class="node">
<title>2</title>
<ellipse fill="none" stroke="#000000" cx="97.9464" cy="-215" rx="40.8928" ry="18"/>
<text text-anchor="middle" x="97.9464" y="-211.3" font-family="Times,serif" font-size="14.00" fill="#000000">leader_1</text>
</g>
<!-- 1&#45;&gt;2 -->
<g id="edge3" class="edge">
<title>1&#45;&gt;2</title>
<path fill="none" stroke="#000000" d="M52.4812,-284.3943C60.5934,-272.0124 71.589,-255.2297 80.7347,-241.2704"/>
<polygon fill="#000000" stroke="#000000" points="83.876,-242.8623 86.4287,-232.5796 78.0208,-239.0261 83.876,-242.8623"/>
<text text-anchor="middle" x="123.4464" y="-254.8" font-family="Times,serif" font-size="14.00" fill="#000000">1 [c = 16T±a] {c}</text>
</g>
<!-- 2&#45;&gt;0 -->
<g id="edge7" class="edge">
<title>2&#45;&gt;0</title>
<path fill="none" stroke="#000000" d="M134.7946,-223.1749C150.4382,-228.5174 167.4504,-237.1691 177.9464,-251 202.0417,-282.7514 192.3195,-331.4455 182.5354,-361.6973"/>
<polygon fill="#000000" stroke="#000000" points="179.2103,-360.6037 179.2637,-371.1984 185.8289,-362.8829 179.2103,-360.6037"/>
<text text-anchor="middle" x="203.9464" y="-298.3" font-family="Times,serif" font-size="14.00" fill="#000000">else</text>
</g>
<!-- 2&#45;&gt;2 -->
<g id="edge5" class="edge">
<title>2&#45;&gt;2</title>
<path fill="none" stroke="#000000" d="M134.7878,-222.875C147.0683,-222.875 156.8927,-220.25 156.8927,-215 156.8927,-211.3086 152.0357,-208.9149 144.883,-207.8191"/>
<polygon fill="#000000" stroke="#000000" points="145.0044,-204.3192 134.7878,-207.125 144.5242,-211.3028 145.0044,-204.3192"/>
<text text-anchor="middle" x="190.3927" y="-211.3" font-family="Times,serif" font-size="14.00" fill="#000000">1 [c &lt; 8T&#45;a]</text>
</g>
<!-- 3 -->
<g id="node4" class="node">
<title>3</title>
<ellipse fill="none" stroke="#000000" cx="104.9464" cy="-128" rx="30.5947" ry="18"/>
<text text-anchor="middle" x="104.9464" y="-124.3" font-family="Times,serif" font-size="14.00" fill="#000000">out_1</text>
</g>
<!-- 2&#45;&gt;3 -->
<g id="edge6" class="edge">
<title>2&#45;&gt;3</title>
<path fill="none" stroke="#000000" d="M99.3968,-196.9735C100.3447,-185.1918 101.6024,-169.5607 102.6808,-156.1581"/>
<polygon fill="#000000" stroke="#000000" points="106.1844,-156.2519 103.4978,-146.0034 99.207,-155.6904 106.1844,-156.2519"/>
<text text-anchor="middle" x="172.9464" y="-167.8" font-family="Times,serif" font-size="14.00" fill="#000000">0 [c = 8T±a] {c} / out:=1</text>
</g>
<!-- 3&#45;&gt;3 -->
<g id="edge8" class="edge">
<title>3&#45;&gt;3</title>
<path fill="none" stroke="#000000" d="M132.8838,-135.8269C144.0888,-136.2691 153.4937,-133.6602 153.4937,-128 153.4937,-124.1971 149.2482,-121.7715 143.0636,-120.7233"/>
<polygon fill="#000000" stroke="#000000" points="143.0582,-117.218 132.8838,-120.1731 142.6803,-124.2078 143.0582,-117.218"/>
<text text-anchor="middle" x="191.4937" y="-124.3" font-family="Times,serif" font-size="14.00" fill="#000000">[c &lt;β 200ms]</text>
</g>
<!-- 4 -->
<g id="node5" class="node">
<title>4</title>
<ellipse fill="none" stroke="#000000" cx="182.9464" cy="-41" rx="30.5947" ry="18"/>
<text text-anchor="middle" x="182.9464" y="-37.3" font-family="Times,serif" font-size="14.00" fill="#000000">out_0</text>
</g>
<!-- 3&#45;&gt;4 -->
<g id="edge9" class="edge">
<title>3&#45;&gt;4</title>
<path fill="none" stroke="#000000" d="M119.2528,-112.0429C131.1625,-98.7589 148.2915,-79.6535 161.7872,-64.6006"/>
<polygon fill="#000000" stroke="#000000" points="164.397,-66.9327 168.4665,-57.1506 159.185,-62.2599 164.397,-66.9327"/>
<text text-anchor="middle" x="193.9464" y="-80.8" font-family="Times,serif" font-size="14.00" fill="#000000">else {c} / out:=0</text>
</g>
<!-- 4&#45;&gt;0 -->
<g id="edge11" class="edge">
<title>4&#45;&gt;0</title>
<path fill="none" stroke="#000000" d="M208.5354,-50.8986C220.7967,-56.8085 234.7734,-65.4411 243.9464,-77 258.7138,-95.6083 259.9464,-104.244 259.9464,-128 259.9464,-302 259.9464,-302 259.9464,-302 259.9464,-333.9535 230.2416,-358.1446 205.3487,-372.8071"/>
<polygon fill="#000000" stroke="#000000" points="203.4814,-369.8412 196.4593,-377.7747 206.8961,-375.9518 203.4814,-369.8412"/>
<text text-anchor="middle" x="270.9464" y="-211.3" font-family="Times,serif" font-size="14.00" fill="#000000">else</text>
</g>
<!-- 4&#45;&gt;4 -->
<g id="edge10" class="edge">
<title>4&#45;&gt;4</title>
<path fill="none" stroke="#000000" d="M210.8838,-48.8269C222.0888,-49.2691 231.4937,-46.6602 231.4937,-41 231.4937,-37.1971 227.2482,-34.7715 221.0636,-33.7233"/>
<polygon fill="#000000" stroke="#000000" points="221.0582,-30.218 210.8838,-33.1731 220.6803,-37.2078 221.0582,-30.218"/>
<text text-anchor="middle" x="256.9937" y="-37.3" font-family="Times,serif" font-size="14.00" fill="#000000">[c &lt;β 2s]</text>
</g>
</g>
</svg>
