<?xml version="1.0" encoding="UTF-8" standalone="no"?>
<!DOCTYPE svg PUBLIC "-//W3C//DTD SVG 1.1//EN"
 "http://www.w3.org/Graphics/SVG/1.1/DTD/svg11.dtd">
<!-- Generated by graphviz version 2.43.0 (0)
 -->
<!-- Title: Fsm1 Pages: 1 -->
<svg width="470pt" height="415pt"
 viewBox="0.00 0.00 469.57 415.00" xmlns="http://www.w3.org/2000/svg" xmlns:xlink="http://www.w3.org/1999/xlink">
<g id="graph0" class="graph" transform="scale(1 1) rotate(0) translate(4 411)">
<title>Fsm1</title>
<polygon fill="white" stroke="transparent" points="-4,4 -4,-411 465.57,-411 465.57,4 -4,4"/>
<text text-anchor="middle" x="230.78" y="-7.8" font-family="Times,serif" font-size="14.00">T=562us, a=0.2T, α=500us, β=20ms.</text>
<!-- 0 -->
<g id="node1" class="node">
<title>0</title>
<ellipse fill="none" stroke="black" cx="193.57" cy="-389" rx="31.4" ry="18"/>
<text text-anchor="middle" x="193.57" y="-385.3" font-family="Times,serif" font-size="14.00">initial</text>
</g>
<!-- 1 -->
<g id="node2" class="node">
<title>1</title>
<ellipse fill="none" stroke="black" cx="87.57" cy="-302" rx="40.89" ry="18"/>
<text text-anchor="middle" x="87.57" y="-298.3" font-family="Times,serif" font-size="14.00">leader_0</text>
</g>
<!-- 0&#45;&gt;1 -->
<g id="edge1" class="edge">
<title>0&#45;&gt;1</title>
<path fill="none" stroke="black" d="M162.57,-386.89C114.22,-384.44 24.31,-376.73 4.57,-353 -10.33,-335.09 15.18,-321.92 41.74,-313.61"/>
<polygon fill="black" stroke="black" points="42.88,-316.93 51.5,-310.77 40.92,-310.21 42.88,-316.93"/>
<text text-anchor="middle" x="20.07" y="-341.8" font-family="Times,serif" font-size="14.00">0 {c}</text>
</g>
<!-- 1&#45;&gt;0 -->
<g id="edge2" class="edge">
<title>1&#45;&gt;0</title>
<path fill="none" stroke="black" d="M68.92,-318.54C58.92,-328.77 50.22,-342.21 58.57,-353 70.13,-367.94 117.78,-377.68 153.22,-383"/>
<polygon fill="black" stroke="black" points="152.91,-386.49 163.31,-384.44 153.9,-379.56 152.91,-386.49"/>
<text text-anchor="middle" x="95.57" y="-341.8" font-family="Times,serif" font-size="14.00">1 [c &lt; 16T&#45;a]</text>
</g>
<!-- 1&#45;&gt;0 -->
<g id="edge4" class="edge">
<title>1&#45;&gt;0</title>
<path fill="none" stroke="black" d="M106.92,-317.88C114.9,-324.06 124.21,-331.33 132.57,-338 144.51,-347.53 157.62,-358.25 168.63,-367.31"/>
<polygon fill="black" stroke="black" points="166.63,-370.21 176.57,-373.87 171.09,-364.81 166.63,-370.21"/>
<text text-anchor="middle" x="183.57" y="-341.8" font-family="Times,serif" font-size="14.00">[c &gt; 16T&#45;a]</text>
</g>
<!-- 2 -->
<g id="node3" class="node">
<title>2</title>
<ellipse fill="none" stroke="black" cx="235.57" cy="-215" rx="40.89" ry="18"/>
<text text-anchor="middle" x="235.57" y="-211.3" font-family="Times,serif" font-size="14.00">leader_1</text>
</g>
<!-- 1&#45;&gt;2 -->
<g id="edge3" class="edge">
<title>1&#45;&gt;2</title>
<path fill="none" stroke="black" d="M94.35,-283.91C99.48,-273.03 107.54,-259.44 118.57,-251 138.13,-236.03 164.04,-227.43 186.51,-222.52"/>
<polygon fill="black" stroke="black" points="187.43,-225.9 196.55,-220.51 186.06,-219.04 187.43,-225.9"/>
<text text-anchor="middle" x="169.07" y="-254.8" font-family="Times,serif" font-size="14.00">1 [c = 16T±a] {c}</text>
</g>
<!-- 2&#45;&gt;0 -->
<g id="edge5" class="edge">
<title>2&#45;&gt;0</title>
<path fill="none" stroke="black" d="M236.35,-233.13C236.96,-259.76 235.72,-312.27 219.57,-353 218,-356.96 215.86,-360.87 213.49,-364.56"/>
<polygon fill="black" stroke="black" points="210.64,-362.52 207.66,-372.69 216.33,-366.6 210.64,-362.52"/>
<text text-anchor="middle" x="269.07" y="-298.3" font-family="Times,serif" font-size="14.00">0 [c &lt; 8T&#45;a]</text>
</g>
<!-- 2&#45;&gt;0 -->
<g id="edge7" class="edge">
<title>2&#45;&gt;0</title>
<path fill="none" stroke="black" d="M257.58,-230.31C284.84,-249.91 325.5,-286.51 306.57,-320 290.43,-348.54 256.99,-366.43 230.65,-376.65"/>
<polygon fill="black" stroke="black" points="229.14,-373.48 220.95,-380.2 231.55,-380.05 229.14,-373.48"/>
<text text-anchor="middle" x="333.57" y="-298.3" font-family="Times,serif" font-size="14.00">[c &gt; 8T]</text>
</g>
<!-- 3 -->
<g id="node4" class="node">
<title>3</title>
<ellipse fill="none" stroke="black" cx="250.57" cy="-128" rx="30.59" ry="18"/>
<text text-anchor="middle" x="250.57" y="-124.3" font-family="Times,serif" font-size="14.00">out_1</text>
</g>
<!-- 2&#45;&gt;3 -->
<g id="edge6" class="edge">
<title>2&#45;&gt;3</title>
<path fill="none" stroke="black" d="M238.6,-196.8C240.66,-185.16 243.41,-169.55 245.76,-156.24"/>
<polygon fill="black" stroke="black" points="249.25,-156.63 247.54,-146.18 242.35,-155.41 249.25,-156.63"/>
<text text-anchor="middle" x="310.07" y="-167.8" font-family="Times,serif" font-size="14.00">0 [c = 8T±a] {c} / y:=1</text>
</g>
<!-- 4 -->
<g id="node5" class="node">
<title>4</title>
<ellipse fill="none" stroke="black" cx="331.57" cy="-41" rx="30.59" ry="18"/>
<text text-anchor="middle" x="331.57" y="-37.3" font-family="Times,serif" font-size="14.00">out_0</text>
</g>
<!-- 3&#45;&gt;4 -->
<g id="edge8" class="edge">
<title>3&#45;&gt;4</title>
<path fill="none" stroke="black" d="M250.32,-109.69C251.01,-99.27 253.45,-86.27 260.57,-77 269.11,-65.88 282.11,-58.07 294.67,-52.69"/>
<polygon fill="black" stroke="black" points="296.04,-55.91 304.11,-49.04 293.52,-49.39 296.04,-55.91"/>
<text text-anchor="middle" x="328.57" y="-80.8" font-family="Times,serif" font-size="14.00">[c &gt;β 200ms] {c} / y:=0</text>
</g>
<!-- 4&#45;&gt;0 -->
<g id="edge9" class="edge">
<title>4&#45;&gt;0</title>
<path fill="none" stroke="black" d="M357.67,-50.42C371.08,-55.99 386.64,-64.59 396.57,-77 410.99,-95.02 410.57,-103.92 410.57,-127 410.57,-303 410.57,-303 410.57,-303 410.57,-340.66 295.85,-368.49 233.23,-380.88"/>
<polygon fill="black" stroke="black" points="232.44,-377.47 223.29,-382.8 233.77,-384.34 232.44,-377.47"/>
<text text-anchor="middle" x="436.07" y="-211.3" font-family="Times,serif" font-size="14.00">[c &gt;β 2s]</text>
</g>
</g>
</svg>
