<?xml version="1.0" encoding="UTF-8" standalone="no"?>
<!DOCTYPE svg PUBLIC "-//W3C//DTD SVG 1.1//EN"
 "http://www.w3.org/Graphics/SVG/1.1/DTD/svg11.dtd">
<!-- Generated by graphviz version 2.43.0 (0)
 -->
<!-- Title: Fsm1 Pages: 1 -->
<svg width="290pt" height="415pt"
 viewBox="0.00 0.00 290.49 415.00" xmlns="http://www.w3.org/2000/svg" xmlns:xlink="http://www.w3.org/1999/xlink">
<g id="graph0" class="graph" transform="scale(1 1) rotate(0) translate(4 411)">
<title>Fsm1</title>
<polygon fill="white" stroke="transparent" points="-4,4 -4,-411 286.49,-411 286.49,4 -4,4"/>
<text text-anchor="middle" x="141.25" y="-7.8" font-family="Times,serif" font-size="14.00">T=562us, a=0.2T, α=500us, β=20ms.</text>
<!-- 0 -->
<g id="node1" class="node">
<title>0</title>
<ellipse fill="none" stroke="black" cx="171.95" cy="-389" rx="31.4" ry="18"/>
<text text-anchor="middle" x="171.95" y="-385.3" font-family="Times,serif" font-size="14.00">initial</text>
</g>
<!-- 1 -->
<g id="node2" class="node">
<title>1</title>
<ellipse fill="none" stroke="black" cx="40.95" cy="-302" rx="40.89" ry="18"/>
<text text-anchor="middle" x="40.95" y="-298.3" font-family="Times,serif" font-size="14.00">leader_0</text>
</g>
<!-- 0&#45;&gt;1 -->
<g id="edge1" class="edge">
<title>0&#45;&gt;1</title>
<path fill="none" stroke="black" d="M147.51,-377.69C133.45,-371.34 115.7,-362.59 100.95,-353 88.44,-344.87 75.61,-334.5 65.04,-325.31"/>
<polygon fill="black" stroke="black" points="67.24,-322.59 57.44,-318.58 62.6,-327.83 67.24,-322.59"/>
<text text-anchor="middle" x="116.45" y="-341.8" font-family="Times,serif" font-size="14.00">0 {c}</text>
</g>
<!-- 1&#45;&gt;0 -->
<g id="edge4" class="edge">
<title>1&#45;&gt;0</title>
<path fill="none" stroke="black" d="M75.94,-311.71C93.83,-317.29 115.28,-325.81 131.95,-338 141.33,-344.86 149.72,-354.46 156.37,-363.42"/>
<polygon fill="black" stroke="black" points="153.57,-365.52 162.18,-371.7 159.3,-361.5 153.57,-365.52"/>
<text text-anchor="middle" x="157.95" y="-341.8" font-family="Times,serif" font-size="14.00">else</text>
</g>
<!-- 1&#45;&gt;1 -->
<g id="edge2" class="edge">
<title>1&#45;&gt;1</title>
<path fill="none" stroke="black" d="M77.79,-309.88C90.07,-309.88 99.89,-307.25 99.89,-302 99.89,-298.31 95.04,-295.91 87.88,-294.82"/>
<polygon fill="black" stroke="black" points="88,-291.32 77.79,-294.12 87.52,-298.3 88,-291.32"/>
<text text-anchor="middle" x="136.89" y="-298.3" font-family="Times,serif" font-size="14.00">0 [c &lt; 16T&#45;a]</text>
</g>
<!-- 2 -->
<g id="node3" class="node">
<title>2</title>
<ellipse fill="none" stroke="black" cx="97.95" cy="-215" rx="40.89" ry="18"/>
<text text-anchor="middle" x="97.95" y="-211.3" font-family="Times,serif" font-size="14.00">leader_1</text>
</g>
<!-- 1&#45;&gt;2 -->
<g id="edge3" class="edge">
<title>1&#45;&gt;2</title>
<path fill="none" stroke="black" d="M51.94,-284.61C60.16,-272.34 71.57,-255.34 80.96,-241.32"/>
<polygon fill="black" stroke="black" points="84.13,-242.88 86.8,-232.63 78.32,-238.98 84.13,-242.88"/>
<text text-anchor="middle" x="123.45" y="-254.8" font-family="Times,serif" font-size="14.00">1 [c = 16T±a] {c}</text>
</g>
<!-- 2&#45;&gt;0 -->
<g id="edge7" class="edge">
<title>2&#45;&gt;0</title>
<path fill="none" stroke="black" d="M134.36,-223.57C150.11,-228.7 167.33,-237.17 177.95,-251 202.19,-282.6 192.19,-331.4 182.34,-361.43"/>
<polygon fill="black" stroke="black" points="178.92,-360.61 178.92,-371.21 185.53,-362.92 178.92,-360.61"/>
<text text-anchor="middle" x="203.95" y="-298.3" font-family="Times,serif" font-size="14.00">else</text>
</g>
<!-- 2&#45;&gt;2 -->
<g id="edge5" class="edge">
<title>2&#45;&gt;2</title>
<path fill="none" stroke="black" d="M134.79,-222.88C147.07,-222.88 156.89,-220.25 156.89,-215 156.89,-211.31 152.04,-208.91 144.88,-207.82"/>
<polygon fill="black" stroke="black" points="145,-204.32 134.79,-207.12 144.52,-211.3 145,-204.32"/>
<text text-anchor="middle" x="190.39" y="-211.3" font-family="Times,serif" font-size="14.00">1 [c &lt; 8T&#45;a]</text>
</g>
<!-- 3 -->
<g id="node4" class="node">
<title>3</title>
<ellipse fill="none" stroke="black" cx="104.95" cy="-128" rx="30.59" ry="18"/>
<text text-anchor="middle" x="104.95" y="-124.3" font-family="Times,serif" font-size="14.00">out_1</text>
</g>
<!-- 2&#45;&gt;3 -->
<g id="edge6" class="edge">
<title>2&#45;&gt;3</title>
<path fill="none" stroke="black" d="M99.36,-196.8C100.32,-185.16 101.61,-169.55 102.7,-156.24"/>
<polygon fill="black" stroke="black" points="106.2,-156.43 103.53,-146.18 99.22,-155.85 106.2,-156.43"/>
<text text-anchor="middle" x="167.45" y="-167.8" font-family="Times,serif" font-size="14.00">0 [c = 8T±a] {c} / y:=1</text>
</g>
<!-- 3&#45;&gt;3 -->
<g id="edge8" class="edge">
<title>3&#45;&gt;3</title>
<path fill="none" stroke="black" d="M132.88,-135.83C144.09,-136.27 153.49,-133.66 153.49,-128 153.49,-124.2 149.25,-121.77 143.06,-120.72"/>
<polygon fill="black" stroke="black" points="143.06,-117.22 132.88,-120.17 142.68,-124.21 143.06,-117.22"/>
<text text-anchor="middle" x="191.49" y="-124.3" font-family="Times,serif" font-size="14.00">[c &lt;β 200ms]</text>
</g>
<!-- 4 -->
<g id="node5" class="node">
<title>4</title>
<ellipse fill="none" stroke="black" cx="182.95" cy="-41" rx="30.59" ry="18"/>
<text text-anchor="middle" x="182.95" y="-37.3" font-family="Times,serif" font-size="14.00">out_0</text>
</g>
<!-- 3&#45;&gt;4 -->
<g id="edge9" class="edge">
<title>3&#45;&gt;4</title>
<path fill="none" stroke="black" d="M118.89,-111.8C130.98,-98.63 148.64,-79.38 162.36,-64.43"/>
<polygon fill="black" stroke="black" points="164.94,-66.8 169.12,-57.06 159.78,-62.07 164.94,-66.8"/>
<text text-anchor="middle" x="188.95" y="-80.8" font-family="Times,serif" font-size="14.00">else {c} / y:=0</text>
</g>
<!-- 4&#45;&gt;0 -->
<g id="edge11" class="edge">
<title>4&#45;&gt;0</title>
<path fill="none" stroke="black" d="M204.81,-53.87C227.57,-68.02 259.95,-93.95 259.95,-127 259.95,-303 259.95,-303 259.95,-303 259.95,-334.78 229.88,-358.45 204.9,-372.63"/>
<polygon fill="black" stroke="black" points="203.14,-369.6 195.99,-377.42 206.46,-375.77 203.14,-369.6"/>
<text text-anchor="middle" x="270.95" y="-211.3" font-family="Times,serif" font-size="14.00">else</text>
</g>
<!-- 4&#45;&gt;4 -->
<g id="edge10" class="edge">
<title>4&#45;&gt;4</title>
<path fill="none" stroke="black" d="M210.88,-48.83C222.09,-49.27 231.49,-46.66 231.49,-41 231.49,-37.2 227.25,-34.77 221.06,-33.72"/>
<polygon fill="black" stroke="black" points="221.06,-30.22 210.88,-33.17 220.68,-37.21 221.06,-30.22"/>
<text text-anchor="middle" x="256.99" y="-37.3" font-family="Times,serif" font-size="14.00">[c &lt;β 2s]</text>
</g>
</g>
</svg>
