<?xml version="1.0" encoding="UTF-8" standalone="no"?>
<!DOCTYPE svg PUBLIC "-//W3C//DTD SVG 1.1//EN"
 "http://www.w3.org/Graphics/SVG/1.1/DTD/svg11.dtd">
<!-- Generated by graphviz version 2.40.1 (20161225.0304)
 -->
<!-- Title: Fsm1 Pages: 1 -->
<svg width="469pt" height="439pt"
 viewBox="0.00 0.00 469.36 439.00" xmlns="http://www.w3.org/2000/svg" xmlns:xlink="http://www.w3.org/1999/xlink">
<g id="graph0" class="graph" transform="scale(1 1) rotate(0) translate(4 434.9954)">
<title>Fsm1</title>
<polygon fill="#ffffff" stroke="transparent" points="-4,4 -4,-434.9954 465.3616,-434.9954 465.3616,4 -4,4"/>
<text text-anchor="middle" x="230.6808" y="-7.8" font-family="Times,serif" font-size="14.00" fill="#000000">T=562us, a=0.2T, α=500us, β=20ms.</text>
<!-- 0 -->
<g id="node1" class="node">
<title>0</title>
<ellipse fill="none" stroke="#000000" cx="193.3616" cy="-400.9977" rx="25.9957" ry="25.9957"/>
<ellipse fill="none" stroke="#000000" cx="193.3616" cy="-400.9977" rx="29.9954" ry="29.9954"/>
<text text-anchor="middle" x="193.3616" y="-397.2977" font-family="Times,serif" font-size="14.00" fill="#000000">start</text>
</g>
<!-- L0 -->
<g id="node2" class="node">
<title>L0</title>
<ellipse fill="none" stroke="#000000" cx="87.3616" cy="-302" rx="27" ry="18"/>
<text text-anchor="middle" x="87.3616" y="-298.3" font-family="Times,serif" font-size="14.00" fill="#000000">L0</text>
</g>
<!-- 0&#45;&gt;L0 -->
<g id="edge1" class="edge">
<title>0&#45;&gt;L0</title>
<path fill="none" stroke="#000000" d="M163.4207,-397.8155C115.1942,-392.0042 23.7432,-377.9189 4.3616,-353 -11.7535,-332.2807 22.1773,-317.939 51.3959,-309.8572"/>
<polygon fill="#000000" stroke="#000000" points="52.639,-313.151 61.4446,-307.2595 50.8869,-306.3738 52.639,-313.151"/>
<text text-anchor="middle" x="19.8616" y="-341.8" font-family="Times,serif" font-size="14.00" fill="#000000">0 {c}</text>
</g>
<!-- L0&#45;&gt;0 -->
<g id="edge2" class="edge">
<title>L0&#45;&gt;0</title>
<path fill="none" stroke="#000000" d="M70.2695,-316.3032C59.8565,-326.7842 50.0216,-341.1833 58.3616,-353 69.6541,-368.9999 118.1268,-383.4756 153.771,-392.2493"/>
<polygon fill="#000000" stroke="#000000" points="153.3632,-395.7505 163.9035,-394.6768 154.9941,-388.9432 153.3632,-395.7505"/>
<text text-anchor="middle" x="95.3616" y="-341.8" font-family="Times,serif" font-size="14.00" fill="#000000">1 [c &lt; 16T&#45;a]</text>
</g>
<!-- L0&#45;&gt;0 -->
<g id="edge4" class="edge">
<title>L0&#45;&gt;0</title>
<path fill="none" stroke="#000000" d="M105.3138,-315.517C113.7322,-322.0668 123.7766,-330.1905 132.3616,-338 143.78,-348.3868 155.7223,-360.428 165.9823,-371.1838"/>
<polygon fill="#000000" stroke="#000000" points="163.7138,-373.8792 173.1244,-378.7464 168.803,-369.073 163.7138,-373.8792"/>
<text text-anchor="middle" x="179.3616" y="-341.8" font-family="Times,serif" font-size="14.00" fill="#000000">[c &gt; 16T&#45;a]</text>
</g>
<!-- L1 -->
<g id="node3" class="node">
<title>L1</title>
<ellipse fill="none" stroke="#000000" cx="235.3616" cy="-215" rx="27" ry="18"/>
<text text-anchor="middle" x="235.3616" y="-211.3" font-family="Times,serif" font-size="14.00" fill="#000000">L1</text>
</g>
<!-- L0&#45;&gt;L1 -->
<g id="edge3" class="edge">
<title>L0&#45;&gt;L1</title>
<path fill="none" stroke="#000000" d="M94.3084,-284.1034C99.4263,-273.1034 107.4064,-259.53 118.3616,-251 141.3977,-233.0638 173.4021,-224.0108 198.1161,-219.4722"/>
<polygon fill="#000000" stroke="#000000" points="198.9248,-222.8858 208.214,-217.7907 197.7749,-215.9809 198.9248,-222.8858"/>
<text text-anchor="middle" x="168.8616" y="-254.8" font-family="Times,serif" font-size="14.00" fill="#000000">1 [c = 16T±a] {c}</text>
</g>
<!-- L1&#45;&gt;0 -->
<g id="edge5" class="edge">
<title>L1&#45;&gt;0</title>
<path fill="none" stroke="#000000" d="M234.38,-233.2155C232.5697,-259.9591 227.6907,-311.205 215.3616,-353 214.18,-357.0059 212.722,-361.1062 211.1236,-365.1405"/>
<polygon fill="#000000" stroke="#000000" points="207.8962,-363.7863 207.2029,-374.3585 214.3377,-366.5262 207.8962,-363.7863"/>
<text text-anchor="middle" x="261.8616" y="-298.3" font-family="Times,serif" font-size="14.00" fill="#000000">0 [c &lt; 8T&#45;a]</text>
</g>
<!-- L1&#45;&gt;0 -->
<g id="edge7" class="edge">
<title>L1&#45;&gt;0</title>
<path fill="none" stroke="#000000" d="M253.8453,-228.4861C278.2597,-248.0577 316.2977,-285.7441 299.3616,-320 284.9809,-349.0873 254.5928,-370.5966 230.0253,-384.1106"/>
<polygon fill="#000000" stroke="#000000" points="228.1555,-381.1395 220.94,-388.8976 231.4186,-387.3325 228.1555,-381.1395"/>
<text text-anchor="middle" x="326.3616" y="-298.3" font-family="Times,serif" font-size="14.00" fill="#000000">[c &gt; 8T]</text>
</g>
<!-- Y1 -->
<g id="node4" class="node">
<title>Y1</title>
<ellipse fill="none" stroke="#000000" cx="250.3616" cy="-128" rx="27.0966" ry="18"/>
<text text-anchor="middle" x="250.3616" y="-124.3" font-family="Times,serif" font-size="14.00" fill="#000000">y:=1</text>
</g>
<!-- L1&#45;&gt;Y1 -->
<g id="edge6" class="edge">
<title>L1&#45;&gt;Y1</title>
<path fill="none" stroke="#000000" d="M238.4697,-196.9735C240.501,-185.1918 243.196,-169.5607 245.5068,-156.1581"/>
<polygon fill="#000000" stroke="#000000" points="249.0076,-156.4527 247.2576,-146.0034 242.1094,-155.2633 249.0076,-156.4527"/>
<text text-anchor="middle" x="308.8616" y="-167.8" font-family="Times,serif" font-size="14.00" fill="#000000">0 [c = 8T±a] {c} / y:=1</text>
</g>
<!-- Y2 -->
<g id="node5" class="node">
<title>Y2</title>
<ellipse fill="none" stroke="#000000" cx="331.3616" cy="-41" rx="27.0966" ry="18"/>
<text text-anchor="middle" x="331.3616" y="-37.3" font-family="Times,serif" font-size="14.00" fill="#000000">y:=0</text>
</g>
<!-- Y1&#45;&gt;Y2 -->
<g id="edge8" class="edge">
<title>Y1&#45;&gt;Y2</title>
<path fill="none" stroke="#000000" d="M250.1021,-109.8963C250.8175,-99.3603 253.2857,-86.3549 260.3616,-77 269.3515,-65.1147 283.3645,-56.8549 296.5742,-51.2749"/>
<polygon fill="#000000" stroke="#000000" points="297.8844,-54.5211 305.9677,-47.672 295.3775,-47.9854 297.8844,-54.5211"/>
<text text-anchor="middle" x="328.3616" y="-80.8" font-family="Times,serif" font-size="14.00" fill="#000000">[c &gt;β 200ms] {c} / y:=0</text>
</g>
<!-- Y2&#45;&gt;0 -->
<g id="edge9" class="edge">
<title>Y2&#45;&gt;0</title>
<path fill="none" stroke="#000000" d="M355.8853,-49.1317C369.6496,-54.881 386.0742,-63.92 396.3616,-77 410.8927,-95.4755 410.3616,-104.4948 410.3616,-128 410.3616,-302 410.3616,-302 410.3616,-302 410.3616,-340.6369 295.0546,-375.5493 232.5468,-391.6367"/>
<polygon fill="#000000" stroke="#000000" points="231.4636,-388.3004 222.6272,-394.1459 233.1802,-395.0867 231.4636,-388.3004"/>
<text text-anchor="middle" x="435.8616" y="-211.3" font-family="Times,serif" font-size="14.00" fill="#000000">[c &gt;β 2s]</text>
</g>
</g>
</svg>
