<?xml version="1.0" encoding="UTF-8" standalone="no"?>
<!DOCTYPE svg PUBLIC "-//W3C//DTD SVG 1.1//EN"
 "http://www.w3.org/Graphics/SVG/1.1/DTD/svg11.dtd">
<!-- Generated by graphviz version 2.43.0 (0)
 -->
<!-- Title: Fsm1 Pages: 1 -->
<svg width="470pt" height="415pt"
 viewBox="0.00 0.00 469.61 415.00" xmlns="http://www.w3.org/2000/svg" xmlns:xlink="http://www.w3.org/1999/xlink">
<g id="graph0" class="graph" transform="scale(1 1) rotate(0) translate(4 411)">
<title>Fsm1</title>
<polygon fill="white" stroke="transparent" points="-4,4 -4,-411 465.61,-411 465.61,4 -4,4"/>
<text text-anchor="middle" x="230.81" y="-7.8" font-family="Times,serif" font-size="14.00">T=562us, a=0.2T, α=500us, β=20ms.</text>
<!-- 0 -->
<g id="node1" class="node">
<title>0</title>
<ellipse fill="none" stroke="black" cx="193.61" cy="-389" rx="27" ry="18"/>
<text text-anchor="middle" x="193.61" y="-385.3" font-family="Times,serif" font-size="14.00">start</text>
</g>
<!-- L0 -->
<g id="node2" class="node">
<title>L0</title>
<ellipse fill="none" stroke="black" cx="87.61" cy="-302" rx="27" ry="18"/>
<text text-anchor="middle" x="87.61" y="-298.3" font-family="Times,serif" font-size="14.00">L0</text>
</g>
<!-- 0&#45;&gt;L0 -->
<g id="edge1" class="edge">
<title>0&#45;&gt;L0</title>
<path fill="none" stroke="black" d="M166.44,-387.08C119.17,-384.85 24.88,-377.37 4.61,-353 -12.26,-332.72 22.67,-318.53 52.27,-310.57"/>
<polygon fill="black" stroke="black" points="53.18,-313.95 62.02,-308.11 51.47,-307.17 53.18,-313.95"/>
<text text-anchor="middle" x="20.11" y="-341.8" font-family="Times,serif" font-size="14.00">0 {c}</text>
</g>
<!-- L0&#45;&gt;0 -->
<g id="edge2" class="edge">
<title>L0&#45;&gt;0</title>
<path fill="none" stroke="black" d="M71.18,-316.34C60.34,-326.78 49.64,-341.41 58.61,-353 70.58,-368.47 121.2,-378.35 156.93,-383.54"/>
<polygon fill="black" stroke="black" points="156.64,-387.03 167.02,-384.94 157.6,-380.1 156.64,-387.03"/>
<text text-anchor="middle" x="95.61" y="-341.8" font-family="Times,serif" font-size="14.00">1 [c &lt; 16T&#45;a]</text>
</g>
<!-- L0&#45;&gt;0 -->
<g id="edge4" class="edge">
<title>L0&#45;&gt;0</title>
<path fill="none" stroke="black" d="M104.79,-316.19C113.21,-322.71 123.48,-330.71 132.61,-338 144.8,-347.74 158.23,-358.71 169.37,-367.89"/>
<polygon fill="black" stroke="black" points="167.45,-370.85 177.39,-374.52 171.91,-365.45 167.45,-370.85"/>
<text text-anchor="middle" x="182.61" y="-341.8" font-family="Times,serif" font-size="14.00">[c &gt; 16T&#45;a]</text>
</g>
<!-- L1 -->
<g id="node3" class="node">
<title>L1</title>
<ellipse fill="none" stroke="black" cx="235.61" cy="-215" rx="27" ry="18"/>
<text text-anchor="middle" x="235.61" y="-211.3" font-family="Times,serif" font-size="14.00">L1</text>
</g>
<!-- L0&#45;&gt;L1 -->
<g id="edge3" class="edge">
<title>L0&#45;&gt;L1</title>
<path fill="none" stroke="black" d="M94.16,-284.38C99.28,-273.43 107.42,-259.57 118.61,-251 141.89,-233.19 174.15,-224.4 198.9,-220.1"/>
<polygon fill="black" stroke="black" points="199.66,-223.52 209,-218.51 198.57,-216.6 199.66,-223.52"/>
<text text-anchor="middle" x="169.11" y="-254.8" font-family="Times,serif" font-size="14.00">1 [c = 16T±a] {c}</text>
</g>
<!-- L1&#45;&gt;0 -->
<g id="edge5" class="edge">
<title>L1&#45;&gt;0</title>
<path fill="none" stroke="black" d="M236.14,-233.1C236.39,-259.69 234.55,-312.14 218.61,-353 217.05,-356.99 214.94,-360.95 212.59,-364.69"/>
<polygon fill="black" stroke="black" points="209.69,-362.74 206.86,-372.95 215.44,-366.73 209.69,-362.74"/>
<text text-anchor="middle" x="267.11" y="-298.3" font-family="Times,serif" font-size="14.00">0 [c &lt; 8T&#45;a]</text>
</g>
<!-- L1&#45;&gt;0 -->
<g id="edge7" class="edge">
<title>L1&#45;&gt;0</title>
<path fill="none" stroke="black" d="M254.4,-228.42C280.88,-247.54 323.88,-285.59 304.61,-320 288.26,-349.2 253.68,-367.37 227.44,-377.5"/>
<polygon fill="black" stroke="black" points="226.04,-374.29 217.84,-381 228.44,-380.86 226.04,-374.29"/>
<text text-anchor="middle" x="331.61" y="-298.3" font-family="Times,serif" font-size="14.00">[c &gt; 8T]</text>
</g>
<!-- Y1 -->
<g id="node4" class="node">
<title>Y1</title>
<ellipse fill="none" stroke="black" cx="250.61" cy="-128" rx="27.1" ry="18"/>
<text text-anchor="middle" x="250.61" y="-124.3" font-family="Times,serif" font-size="14.00">y:=1</text>
</g>
<!-- L1&#45;&gt;Y1 -->
<g id="edge6" class="edge">
<title>L1&#45;&gt;Y1</title>
<path fill="none" stroke="black" d="M238.65,-196.8C240.7,-185.16 243.45,-169.55 245.8,-156.24"/>
<polygon fill="black" stroke="black" points="249.29,-156.63 247.58,-146.18 242.39,-155.41 249.29,-156.63"/>
<text text-anchor="middle" x="309.11" y="-167.8" font-family="Times,serif" font-size="14.00">0 [c = 8T±a] {c} / y:=1</text>
</g>
<!-- Y2 -->
<g id="node5" class="node">
<title>Y2</title>
<ellipse fill="none" stroke="black" cx="331.61" cy="-41" rx="27.1" ry="18"/>
<text text-anchor="middle" x="331.61" y="-37.3" font-family="Times,serif" font-size="14.00">y:=0</text>
</g>
<!-- Y1&#45;&gt;Y2 -->
<g id="edge8" class="edge">
<title>Y1&#45;&gt;Y2</title>
<path fill="none" stroke="black" d="M250.37,-109.69C251.05,-99.27 253.49,-86.27 260.61,-77 269.71,-65.16 283.87,-57.07 297.16,-51.67"/>
<polygon fill="black" stroke="black" points="298.41,-54.94 306.59,-48.21 296,-48.37 298.41,-54.94"/>
<text text-anchor="middle" x="328.61" y="-80.8" font-family="Times,serif" font-size="14.00">[c &gt;β 200ms] {c} / y:=0</text>
</g>
<!-- Y2&#45;&gt;0 -->
<g id="edge9" class="edge">
<title>Y2&#45;&gt;0</title>
<path fill="none" stroke="black" d="M355.78,-49.64C369.6,-55.17 386.2,-63.99 396.61,-77 411.03,-95.02 410.61,-103.92 410.61,-127 410.61,-303 410.61,-303 410.61,-303 410.61,-341.44 291.07,-369.64 229.44,-381.63"/>
<polygon fill="black" stroke="black" points="228.53,-378.24 219.36,-383.55 229.83,-385.12 228.53,-378.24"/>
<text text-anchor="middle" x="436.11" y="-211.3" font-family="Times,serif" font-size="14.00">[c &gt;β 2s]</text>
</g>
</g>
</svg>
